/* XPM */
static char * goldbrick_xpm[] = {
"64 64 26 1",
" 	c #383838",
".	c #545454",
"+	c #484848",
"@	c #ECDC00",
"#	c #D4C400",
"$	c #A49400",
"%	c #E0D000",
"&	c #C8B800",
"*	c #BCAC00",
"=	c #B0A000",
"-	c #887800",
";	c #645400",
">	c #2C2C2C",
",	c #7C6C00",
"'	c #988800",
")	c #706000",
"!	c #584800",
"~	c #403000",
"{	c #4C3C00",
"]	c #202020",
"^	c #5C5C5C",
"/	c #646464",
"(	c #404040",
"_	c #343434",
":	c #4C4C4C",
"<	c #303030",
"                                                                ",
"                                                                ",
"                                                                ",
". .+++++.++++++.+ +++++++......+++++++++.......++++   ++..+++++ ",
" @@#########$++.@@##################$+ .@@@@%%%%%%#####&&&&***$+",
"+@&==#-$#-&$;>+.@*-*-*-*,*'*'*,*,*&$)>+ #$&=&==&)&,&=&-=$,&'&$,>",
"+#$,$-$')$-);>+.#*--$-)$$)'$$)'$)$')!>+.#$$,;$-)-$,-$$-$,-$!$);>",
"+#,$$)'$$)$!~>+.#-*$-$)$-$)$)-,$)',)!>++#)$;-$;$)$,$-$;$',$,$){>",
"+&$,-',$)-$)~>+.**-$--'$)-)$-)',-)$)~> +*)$,$-;$))$$)$-$$,$!$-{>",
"+*,$$)$')')!~>++*&-$)$)$)$)'-),$)',)!> +*'$;-$,-)-,$-$;$,-$,$)~>",
"+*$)-!),!)-)~> .'')){-))-){)-)-){-))~> +*))!)){-{)!-{){-;{)-)-~>",
"+,;;;~~~~~~~~> +,;;!!!!!!!!!~~~~~~~~~> +-;;;;;;;;;;!!!!!!!!!~~~>",
" +>>>>>>>>]]]> .+>>>>>]]]]]>>]]]]>>>>>+. >>>>>>>>>>>]]]]]>>>>>>>",
".    ++++     + +++++++   .+++  ++++++. +....^//^..++( (. .+++. ",
"+###***********$+.+@@######&&&&&&&******************$+(.@@##### ",
"+--=',=,'-=;=-$~ +.@)=&,*;-*--&'$-,-$-$-$,&;&-'*&'&$~ + @&,=-=-.",
" $-$,--;$-;-$$)~>++#=)$,$$-$;$);-$,$,$;$$-;$-$)-$)$)~ +.&=,$-,$+",
".$$-';$,--';$-)~> +#)$-'--;--)$-;$-,;,--$!-,$)$)$$))~>(+&,$$$,$+",
" --$-,,-,$';$;)~> +#)$$,$;-$;)$;-$,-,$;$-!$;$)-)$)$)~> +&=,$,$' ",
".$;$)-,';$;-$$)~>+.#=!$,$-;-!-);$-,!,$;-!-$;-$)-$)$)~] +=,$$!$,.",
"+=;){,)')')!'))~>+.=$)-!)')-;)-!)')';-)--!'))-{)')-)~](.=$,)!)' ",
"+{{{{{{{{{{{{~~~ +.$;;;;;;;;;;;;;!!!!!!!!!!!!!!!!!!~~]+ $;~;~~;.",
" >>]>>>]]]>>>]]> + + _>>>>>>__  _>>>]]]]]>>>]]]]>>>>> +.+>>>>>>>",
"..+  +. . ++    ++.+++( ( ( (+++. .+(   ((++.(  (+++.+. .( (.+++",
" @@#######*****************$+..@@##########*******************$+",
".@-=*,*,*,=-=-=&-=-=-*=;=&)~ +.@*)#$=-$=-='=,;$-)-$,-$'-$,-$!$~>",
" @=-$'$,)-$$-'-$-;$)$-;-$)=~>+^#*'$;$;-)'-;$;-$;$)$,$-$;$',$,)~>",
"+*;$$)-!$;$)$-'$;-$)-$-;,$)~>./#*,$,$;$)'$,$,$-;$))$')'-$$,$!)~>",
"+*=-${$!)-$-),$,-;,$;$-;$)!~>.^#)$)'-;-')$;-;-$,-)-,$-$;$,-$,)~>",
".*);${-,$;$!$;$-;-$-;$;-,,=~>+.#&)$)$-$-)$;$!)){${$!${$$-;{)-)~>",
"+&$;)))!){))-;-))-));)')'))~> .&$)')-!))));-)-{$!)${)-{$!${$))~>",
"+$';;;;;;;;;;;;;;{{{{{{{{{~~> .$;;;;;;;;;;;;;;!!!!!!!!!!!!~!,!~>",
"++ >>>>>>>>>>>>>>>>>   >>>>>>+++>>>>>>>>]]]]]>   >]]]>>>>>>>>>>>",
".....++ +   +.//...+++((  (  (.+++. .+.+( ( (+..++( (+++. .+++. ",
" *********$+ .########*****************$+..&@#########********* ",
".=$='&==&$~ + #$;$)$$;$-$$)$-;$$;$$)$,$~ +.#$,$)$$;$,-,$)$-$,$).",
"+,-$'$,$-)~>+.#;$,-$,$')$--)--$-;$)-$;$~ ..#$!$)$-;$-$,--')','-+",
"+,$',$,'$)~>+ #;$$,'$)$)$-$!${--$-)'$,$~ ./#$,$)$-$-$$,$)'-$',$+",
" -,$'$',-)~ +.#';$,$,!'---)-$;$-;-')-$,~ ./#,$$)$;$$,,$,$-''-,) ",
".-,$,$,'$)~ ++#;$,!'$)--$-$)-{;';$')$,$~ +.&$,$$)$--,$,$)'-$,-$.",
" )-'))')))~ ++';$$!$,)$)$;$!-;$-;')'$;,~>+.&$!$)$$-$-$,$)')',$$ ",
".~{{{{{{{~~>++$;;;;;;;;;!!!!!!!!!!!!!!~~>++$;;;;;;;;;;;;;;;!!!!.",
">>>>>>>>>>>>+.+>]]]]>>   >]]]]]>>>>>>>>> +++>>>>  + >>]]]>>>>>>>",
".+. +  ++    ++   +++++..++   .+++. + + ++.+. .+.^/.:++ .+.+. . ",
" @#######**********************$ . @@########*****************$+",
".#$--$;$$,'$,$)-$;$,$-$;$;$$,)$~ +.@$$;$;$!$)$!$-!'-)$-,$,')-$~>",
"+#$;$-;$-',$;-!$';$!-'-;$,$,$)'~>++#-$;-;,!-!',$!$;$)-)$-,'$;-~>",
"+#-;$;-);$;$-,-$;'--!,${'!-;--)~> +#-$;;-$,!$,!'$!$))$)$,$)-;$~>",
" #$-$-;$-,'$,$!-$;$!-$!'$,$$$),~> +#$;$-;$!$)',,!-;$,-'-',)$-$~>",
" #$;-$;$;$;$;$)$;;$!-,$,-;';-)$~] .#$;;$;,!$!$!'!$;-)$),$,'-;)~>",
".&$;$;-)-',$---$';-,!;${$)',$)$~] .&)$;-;$!,$,!')-;$)$)$,')$;$~>",
"+$;;;;;;;;;{{{{{{{{{{{{{{{{{{{{~>+.$;;;;;;;;;!!!!!{{{{{{{{{{{~~>",
"++>>>>>>>>>>   >]]]]>>>]]]]>>]]>>+ +>>>>>>]]]>_ _>]>>>>]]]>>>>>>",
"  . .+.++++.//.+. .+.+(   (+.++ ++. .++++++++:...:++++ <]]< ++.+",
".####************$+.+@@########***************$+ .@#####******* ",
" $!$$;';$,&,$;$,$~>++#$$$$;${$,$;$;$'$;$;$!$);~ +.#$;-$!$)$)$;$.",
".,,$,$;',;$!,;-;-~>++#,$)$;){,',$-;-';,-)-!$;$~_+.#;$!$)$)-$)$- ",
"+,!,$;';,$,!$-;',~>+(#,,)$;,,$!${$$;$;$;-!--;)~>+.#;$))$$-)-);).",
"+'!';;$;$,$!,);$;~>+(#${)$;${$,';$;-,;$;$-!)';~>+.#$;!$-))$)$;)+",
" $,$;$;-$;$,!-$,-~>+(#{$$;$,)-!,{$;$;,,;-)!-);~>++#;$-$)$-))!$)+",
".$,,;'';';,!$;$;'~>++#{$)$;,,-{';-{$,;$-;$!$!-~> +#;$!)!$)$)!;$ ",
" '!$;;-;,,$!$;)-,~>+.&${)$;${-;$;$);$;,$;-)-;-~> +&;;!$!$)$)$;$.",
".{{{{{{{{{{{{{{{~~>++$~~~~~{{{{{{{{{{{{{{{{{{~~]+.$~~{{{{{{{{{{ ",
">>>>>>>>>>>>>>>>>>>+.+ __>>>>>>>>>>>>>>]]]]]>]]] ++>>>>>>]]]]]>."};
