/* XPM */
static char * bluebrick_xpm[] = {
"64 64 26 1",
" 	c #383838",
".	c #545454",
"+	c #484848",
"@	c #0000EC",
"#	c #0000D4",
"$	c #0000A4",
"%	c #0000E0",
"&	c #0000C8",
"*	c #0000BC",
"=	c #0000B0",
"-	c #000088",
";	c #000064",
">	c #2C2C2C",
",	c #00007C",
"'	c #000098",
")	c #000070",
"!	c #000058",
"~	c #000040",
"{	c #00004C",
"]	c #202020",
"^	c #5C5C5C",
"/	c #646464",
"(	c #404040",
"_	c #343434",
":	c #4C4C4C",
"<	c #303030",
"                                                                ",
"                                                                ",
"                                                                ",
". .+++++.++++++.+ +++++++......+++++++++.......++++   ++..+++++ ",
" @@#########$++.@@##################$+ .@@@@%%%%%%#####&&&&***$+",
"+@&==#-$#-&$;>+.@*-*-*-*,*'*'*,*,*&$)>+ #$&=&==&)&,&=&-=$,&'&$,>",
"+#$,$-$')$-);>+.#*--$-)$$)'$$)'$)$')!>+.#$$,;$-)-$,-$$-$,-$!$);>",
"+#,$$)'$$)$!~>+.#-*$-$)$-$)$)-,$)',)!>++#)$;-$;$)$,$-$;$',$,$){>",
"+&$,-',$)-$)~>+.**-$--'$)-)$-)',-)$)~> +*)$,$-;$))$$)$-$$,$!$-{>",
"+*,$$)$')')!~>++*&-$)$)$)$)'-),$)',)!> +*'$;-$,-)-,$-$;$,-$,$)~>",
"+*$)-!),!)-)~> .'')){-))-){)-)-){-))~> +*))!)){-{)!-{){-;{)-)-~>",
"+,;;;~~~~~~~~> +,;;!!!!!!!!!~~~~~~~~~> +-;;;;;;;;;;!!!!!!!!!~~~>",
"++>>>>>>>>]]]> .+>>>>>]]]]]>>]]]]>>>>>+. >>>>>>>>>>>]]]]]>>>>>>>",
".    ++++     + +++++++   .+++  ++++++. +....^//^..++( (. .+++..",
"+###***********$+.+@@######&&&&&&&******************$+(.@@#####+",
"+--=',=,'-=;=-$~ +.@)=&,*;-*--&'$-,-$-$-$,&;&-'*&'&$~ + @&,=-=-+",
"+$-$,--;$-;-$$)~>++#=)$,$$-$;$);-$,$,$;$$-;$-$)-$)$)~ +.&=,$-,$+",
"+$$-';$,--';$-)~> +#)$-'--;--)$-;$-,;,--$!-,$)$)$$))~>(+&,$$$,$+",
"+--$-,,-,$';$;)~> +#)$$,$;-$;)$;-$,-,$;$-!$;$)-)$)$)~> +&=,$,$'+",
"+$;$)-,';$;-$$)~>+.#=!$,$-;-!-);$-,!,$;-!-$;-$)-$)$)~] +=,$$!$,+",
"+=;){,)')')!'))~>+.=$)-!)')-;)-!)')';-)--!'))-{)')-)~](.=$,)!)'+",
"+{{{{{{{{{{{{~~~ +.$;;;;;;;;;;;;;!!!!!!!!!!!!!!!!!!~~]+ $;~;~~;+",
"+>>]>>>]]]>>>]]> + + _>>>>>>__  _>>>]]]]]>>>]]]]>>>>> +.+>>>>>>+",
"..+  +. . ++    ++.+++( ( ( (+++. .+(   ((++.(  (+++.+. .( (.+++",
".@@#######*****************$+..@@##########*******************$+",
".@-=*,*,*,=-=-=&-=-=-*=;=&)~ +.@*)#$=-$=-='=,;$-)-$,-$'-$,-$!$~>",
" @=-$'$,)-$$-'-$-;$)$-;-$)=~>+^#*'$;$;-)'-;$;-$;$)$,$-$;$',$,)~>",
"+*;$$)-!$;$)$-'$;-$)-$-;,$)~>./#*,$,$;$)'$,$,$-;$))$')'-$$,$!)~>",
"+*=-${$!)-$-),$,-;,$;$-;$)!~>.^#)$)'-;-')$;-;-$,-)-,$-$;$,-$,)~>",
".*);${-,$;$!$;$-;-$-;$;-,,=~>+.#&)$)$-$-)$;$!)){${$!${$$-;{)-)~>",
"+&$;)))!){))-;-))-));)')'))~> .&$)')-!))));-)-{$!)${)-{$!${$))~>",
"+$';;;;;;;;;;;;;;{{{{{{{{{~~> .$;;;;;;;;;;;;;;!!!!!!!!!!!!~!,!~>",
"++ >>>>>>>>>>>>>>>>>   >>>>>>+++>>>>>>>>]]]]]>   >]]]>>>>>>>>>>>",
".....++ +   +.//...+++((  (  (.+++. .+.+( ( (+..++( (+++. .+++..",
"+*********$+ .########*****************$+..&@#########*********+",
"+=$='&==&$~ + #$;$)$$;$-$$)$-;$$;$$)$,$~ +.#$,$)$$;$,-,$)$-$,$)+",
"+,-$'$,$-)~>+.#;$,-$,$')$--)--$-;$)-$;$~ ..#$!$)$-;$-$,--')','-+",
"+,$',$,'$)~>+ #;$$,'$)$)$-$!${--$-)'$,$~ ./#$,$)$-$-$$,$)'-$',$+",
"+-,$'$',-)~ +.#';$,$,!'---)-$;$-;-')-$,~ ./#,$$)$;$$,,$,$-''-,)+",
"+-,$,$,'$)~ ++#;$,!'$)--$-$)-{;';$')$,$~ +.&$,$$)$--,$,$)'-$,-$+",
"+)-'))')))~ ++';$$!$,)$)$;$!-;$-;')'$;,~>+.&$!$)$$-$-$,$)')',$$+",
"+~{{{{{{{~~>++$;;;;;;;;;!!!!!!!!!!!!!!~~>++$;;;;;;;;;;;;;;;!!!!+",
"+>>>>>>>>>>>+.+>]]]]>>   >]]]]]>>>>>>>>> +++>>>>  + >>]]]>>>>>>+",
".+. +  ++    ++   +++++..++   .+++. + + ++.+. .+.^/.:++ .+.+. . ",
" @#######**********************$ . @@########*****************$+",
".#$--$;$$,'$,$)-$;$,$-$;$;$$,)$~ +.@$$;$;$!$)$!$-!'-)$-,$,')-$~>",
"+#$;$-;$-',$;-!$';$!-'-;$,$,$)'~>++#-$;-;,!-!',$!$;$)-)$-,'$;-~>",
"+#-;$;-);$;$-,-$;'--!,${'!-;--)~> +#-$;;-$,!$,!'$!$))$)$,$)-;$~>",
" #$-$-;$-,'$,$!-$;$!-$!'$,$$$),~> +#$;$-;$!$)',,!-;$,-'-',)$-$~>",
".#$;-$;$;$;$;$)$;;$!-,$,-;';-)$~] .#$;;$;,!$!$!'!$;-)$),$,'-;)~>",
" &$;$;-)-',$---$';-,!;${$)',$)$~] .&)$;-;$!,$,!')-;$)$)$,')$;$~>",
".$;;;;;;;;;{{{{{{{{{{{{{{{{{{{{~>+.$;;;;;;;;;!!!!!{{{{{{{{{{{~~>",
" +>>>>>>>>>>   >]]]]>>>]]]]>>]]>>+ +>>>>>>]]]>_ _>]>>>>]]]>>>>>>",
". . .+.++++.//.+. .+.+(   (+.++ ++. .++++++++:...:++++ <]]< ++..",
".####************$+.+@@########***************$+ .@#####*******+",
"+$!$$;';$,&,$;$,$~>++#$$$$;${$,$;$;$'$;$;$!$);~ +.#$;-$!$)$)$;$+",
"+,,$,$;',;$!,;-;-~>++#,$)$;){,',$-;-';,-)-!$;$~_+.#;$!$)$)-$)$-+",
"+,!,$;';,$,!$-;',~>+(#,,)$;,,$!${$$;$;$;-!--;)~>+.#;$))$$-)-);)+",
"+'!';;$;$,$!,);$;~>+(#${)$;${$,';$;-,;$;$-!)';~>+.#$;!$-))$)$;)+",
"+$,$;$;-$;$,!-$,-~>+(#{$$;$,)-!,{$;$;,,;-)!-);~>++#;$-$)$-))!$)+",
"+$,,;'';';,!$;$;'~>++#{$)$;,,-{';-{$,;$-;$!$!-~> +#;$!)!$)$)!;$+",
"+'!$;;-;,,$!$;)-,~>+.&${)$;${-;$;$);$;,$;-)-;-~> +&;;!$!$)$)$;$+",
"+{{{{{{{{{{{{{{{~~>++$~~~~~{{{{{{{{{{{{{{{{{{~~]+.$~~{{{{{{{{{{+",
"+>>>>>>>>>>>>>>>>>>+.+ __>>>>>>>>>>>>>>]]]]]>]]] ++>>>>>>]]]]]>>"};
