/* XPM */
static char *_87a29d6ac894cb7a7e3ca8fd2f20ee4qi6zlPmOdN9Bqnsv[] = {
/* columns rows colors chars-per-pixel */
"64 64 9 1 ",
"  c #6E614B",
". c #9D8357",
"X c #B19D7C",
"o c #E9E9E9",
"O c #CCC2B2",
"+ c #C3B6A0",
"@ c #CCC2B1",
"# c #C2B59F",
"$ c #A7916A",
/* pixels */
"                                                                ",
" .............................................................. ",
" .............................................................. ",
" .............................................................. ",
" .............................................................. ",
" .............................................................. ",
" .............................................................. ",
" .............................................................. ",
" .............................................................. ",
" .............................................................. ",
" .............................................................. ",
" .................Xooooooooooooooooooooooooo................... ",
" .................Xooooooooooooooooooooooooo................... ",
" .................Xooooooooooooooooooooooooo................... ",
" .................Xooooooooooooooooooooooooo................... ",
" .................XoooooO+++++++++++++++++++................... ",
" .................XoooooX...................................... ",
" .................XoooooX...................................... ",
" .................XoooooX...................................... ",
" .................XoooooX...................................... ",
" .................XoooooX...................................... ",
" .................XoooooX...................................... ",
" .................XoooooX...................................... ",
" .................XoooooX...................................... ",
" .................XoooooX...................................... ",
" .................XoooooX...................................... ",
" .................XoooooX...................................... ",
" .................Xooooo@##################$................... ",
" .................XooooooooooooooooooooooooX................... ",
" .................XooooooooooooooooooooooooX................... ",
" .................XooooooooooooooooooooooooX................... ",
" .................XooooooooooooooooooooooooX................... ",
" .................XoooooX...................................... ",
" .................XoooooX...................................... ",
" .................XoooooX...................................... ",
" .................XoooooX...................................... ",
" .................XoooooX...................................... ",
" .................XoooooX...................................... ",
" .................XoooooX...................................... ",
" .................XoooooX...................................... ",
" .................XoooooX...................................... ",
" .................XoooooX...................................... ",
" .................XoooooX...................................... ",
" .................XoooooX...................................... ",
" .................XoooooX...................................... ",
" .................XoooooX...................................... ",
" .................Xooooo@###################X.................. ",
" .................Xooooooooooooooooooooooooo+.................. ",
" .................Xooooooooooooooooooooooooo+.................. ",
" .................Xooooooooooooooooooooooooo+.................. ",
" .................Xooooooooooooooooooooooooo+.................. ",
" .............................................................. ",
" .............................................................. ",
" .............................................................. ",
" .............................................................. ",
" .............................................................. ",
" .............................................................. ",
" .............................................................. ",
" .............................................................. ",
" .............................................................. ",
" .............................................................. ",
" .............................................................. ",
" .............................................................. ",
"                                                                "
};
