/* XPM */
static char *_cb675e05eaa40e98d00df8986ad7ca4GHLGxugjtm1Zo9ME[] = {
/* columns rows colors chars-per-pixel */
"64 64 18 1 ",
"  c #4B6E67",
". c #579D8F",
"X c #7DB3A8",
"o c #EDF4F3",
"O c #8FBEB5",
"+ c #D9E8E6",
"@ c #E3EEEC",
"# c #61A396",
"$ c #A2C8C1",
"% c #98C3BB",
"& c #6AA89C",
"* c #DAE9E6",
"= c #B5D3CD",
"- c #85B9AE",
"; c #74ADA2",
": c #C7DEDA",
"> c #C7DED9",
", c #ACCEC7",
/* pixels */
"                                                                ",
" .............................................................. ",
" .............................................................. ",
" .............................................................. ",
" .............................................................. ",
" .............................................................. ",
" .............................................................. ",
" .............................................................. ",
" .............................................................. ",
" .............................................................. ",
" ...............XoooooooO................Xooooo................ ",
" ...............Xooooooo+................Xooooo................ ",
" ...............XooooooooO...............Xooooo................ ",
" ...............Xoooooooo@#..............Xooooo................ ",
" ...............Xooooooooo$..............Xooooo................ ",
" ...............Xooooooooo@#.............Xooooo................ ",
" ...............Xooooo@oooo$.............Xooooo................ ",
" ...............Xooooo%oooo@&............Xooooo................ ",
" ...............Xooooo.*oooo=............Xooooo................ ",
" ...............Xooooo.Oooooo&...........Xooooo................ ",
" ...............Xooooo..*oooo=...........Xooooo................ ",
" ...............Xooooo..-ooooo;..........Xooooo................ ",
" ...............Xooooo...:oooo>..........Xooooo................ ",
" ...............Xooooo...XoooooX.........Xooooo................ ",
" ...............Xooooo....:oooo>.........Xooooo................ ",
" ...............Xooooo....XoooooX........Xooooo................ ",
" ...............Xooooo.....=oooo+........Xooooo................ ",
" ...............Xooooo.....&oooooO.......Xooooo................ ",
" ...............Xooooo......=oooo+.......Xooooo................ ",
" ...............Xooooo......&@ooooO......Xooooo................ ",
" ...............Xooooo.......$oooo@#.....Xooooo................ ",
" ...............Xooooo.......#@oooo$.....Xooooo................ ",
" ...............Xooooo........$oooo@#....Xooooo................ ",
" ...............Xooooo........#@oooo$....Xooooo................ ",
" ...............Xooooo.........Oooooo&...Xooooo................ ",
" ...............Xooooo..........*oooo=...Xooooo................ ",
" ...............Xooooo..........Oooooo&..Xooooo................ ",
" ...............Xooooo...........*oooo=..Xooooo................ ",
" ...............Xooooo...........XoooooX.Xooooo................ ",
" ...............Xooooo............:oooo>.Xooooo................ ",
" ...............Xooooo............XoooooXXooooo................ ",
" ...............Xooooo.............:oooo>Xooooo................ ",
" ...............Xooooo.............;ooooo,ooooo................ ",
" ...............Xooooo..............=oooooooooo................ ",
" ...............Xooooo..............&oooooooooo................ ",
" ...............Xooooo...............=ooooooooo................ ",
" ...............Xooooo...............&@oooooooo................ ",
" ...............Xooooo................$oooooooo................ ",
" ...............Xooooo................#@ooooooo................ ",
" ...............Xooooo.................$ooooooo................ ",
" .............................................................. ",
" .............................................................. ",
" .............................................................. ",
" .............................................................. ",
" .............................................................. ",
" .............................................................. ",
" .............................................................. ",
" .............................................................. ",
" .............................................................. ",
" .............................................................. ",
" .............................................................. ",
" .............................................................. ",
" .............................................................. ",
"                                                                "
};
