/* XPM */
static char *d2aa2f336d0047198b25ba9b291a1c31hIdrmQOLWMeZKf5f[] = {
/* columns rows colors chars-per-pixel */
"64 64 28 1 ",
"  c #576E4B",
". c #709D57",
"X c #78A261",
"o c #8FB17C",
"O c #88AC74",
"+ c #AEC4A1",
"@ c #CDD8C7",
"# c #E4E7E3",
"$ c gray93",
"% c #DCE2D9",
"& c #97B686",
"* c #B6CAAB",
"= c #90B27D",
"- c #A6BF98",
"; c #BECFB5",
": c #C5D3BD",
"> c #A6C098",
", c #DDE2DA",
"< c #B7CAAC",
"1 c #AFC5A2",
"2 c #97B585",
"3 c #C6D4BE",
"4 c #D5DDD1",
"5 c #80A76A",
"6 c #9FBB8F",
"7 c #D5DDD0",
"8 c #E5E7E3",
"9 c #9EBA8F",
/* pixels */
"                                                                ",
" .............................................................. ",
" .............................................................. ",
" .............................................................. ",
" .............................................................. ",
" .............................................................. ",
" .............................................................. ",
" .............................................................. ",
" .............................................................. ",
" ..........................XooooooooX.......................... ",
" ......................O+@#$$$$$$$$$$$%@+&O.................... ",
" ...................X+%$$$$$$$$$$$$$$$$$$$$%*=................. ",
" ..................-#$$$$$$$$$$$$$$$$$$$$$$$$@................. ",
" .................;$$$$$$$$$$$$$$$$$$$$$$$$$$@................. ",
" ................:$$$$$$$$$$$$$$$$$$$$$$$$$$$@................. ",
" ...............>$$$$$$$$$,<1===.O==2134$$$$$@................. ",
" ..............X#$$$$$$$3O..............56;$$@................. ",
" ..............6$$$$$$$1...................X>;................. ",
" ..............@$$$$$$<........................................ ",
" ..............$$$$$$$=........................................ ",
" ..............$$$$$$$......................................... ",
" ..............$$$$$$$......................................... ",
" ..............$$$$$$$O........................................ ",
" ..............,$$$$$$7X....................................... ",
" ..............;$$$$$$$:5...................................... ",
" ..............=$$$$$$$$#;&.................................... ",
" ...............@$$$$$$$$$$#:+o................................ ",
" ...............58$$$$$$$$$$$$$$7;9O........................... ",
" ................O,$$$$$$$$$$$$$$$$$#:9X....................... ",
" .................X;$$$$$$$$$$$$$$$$$$$$:=..................... ",
" ...................5;8$$$$$$$$$$$$$$$$$$$7=................... ",
" ......................2;,$$$$$$$$$$$$$$$$$$*.................. ",
" .........................52<@$$$$$$$$$$$$$$$;................. ",
" ..............................O>;8$$$$$$$$$$$>................ ",
" ..................................O<8$$$$$$$$#X............... ",
" ....................................X1$$$$$$$$6............... ",
" ......................................;$$$$$$$3............... ",
" .......................................4$$$$$$%............... ",
" .......................................;$$$$$$$............... ",
" .......................................>$$$$$$$............... ",
" .......................................;$$$$$$4............... ",
" .......................................%$$$$$$@............... ",
" .............1@9......................6$$$$$$$6............... ",
" .............1$$%*O..................+$$$$$$$$X............... ",
" .............1$$$$$%;&5...........5-7$$$$$$$$1................ ",
" .............1$$$$$$$$$$@*+++++*@7$$$$$$$$$$@................. ",
" .............1$$$$$$$$$$$$$$$$$$$$$$$$$$$$$@X................. ",
" .............1$$$$$$$$$$$$$$$$$$$$$$$$$$$$<................... ",
" .............24$$$$$$$$$$$$$$$$$$$$$$$$$@O.................... ",
" ...............X2<@$$$$$$$$$$$$$$$$$$,<O...................... ",
" ....................=>13@,$$$$$8@@16O......................... ",
" .............................................................. ",
" .............................................................. ",
" .............................................................. ",
" .............................................................. ",
" .............................................................. ",
" .............................................................. ",
" .............................................................. ",
" .............................................................. ",
" .............................................................. ",
" .............................................................. ",
" .............................................................. ",
" .............................................................. ",
"                                                                "
};
