/* XPM */
static char *_14cad9417b944f9906a06c5733d8971zYe05pWHlyvsBgls[] = {
/* columns rows colors chars-per-pixel */
"64 64 21 1 ",
"  c #6E4B4B",
". c #9D5757",
"X c #C9AFAF",
"o c #E4E4E4",
"O c #AA7272",
"+ c #AF7A7A",
"@ c #B88C8C",
"# c #A26161",
"$ c #D2C0C0",
"% c #BC9494",
"& c #C09D9D",
"* c #C5A7A7",
"= c #B48484",
"- c #D6C9C9",
"; c #DFDBDB",
": c #DAD1D1",
"> c #CDB8B8",
", c #A66969",
"< c #D7CACA",
"1 c #DFDADA",
"2 c #DAD2D2",
/* pixels */
"                                                                ",
" .............................................................. ",
" .............................................................. ",
" .............................................................. ",
" .............................................................. ",
" .............................................................. ",
" .............................................................. ",
" .............................................................. ",
" .............................................................. ",
" .............................................................. ",
" .............................................................. ",
" .............................................................. ",
" .............................................................. ",
" ........XooooO.............+ooooo@.............#oooo$......... ",
" ........%oooo%.............&ooooo*.............=oooo&......... ",
" ........OooooX.............$ooooo-.............*oooo+......... ",
" .........;ooo:.............ooooooo#............-oooo#......... ",
" .........>oooo,...........+ooooooo=............oooo<.......... ",
" .........%oooo@...........%ooo>ooo*...........+oooo*.......... ",
" .........+ooooX...........>oooOooo$...........&oooo=.......... ",
" ..........oooo-...........1oo;.<ooo...........$oooo#.......... ",
" ..........$oooo#.........Oooo$.*ooo+..........oooo<........... ",
" ..........&oooo=.........@ooo&.=ooo&.........+ooooX........... ",
" ..........+oooo*.........Xooo+.,ooo$.........%oooo@........... ",
" ...........oooo$.........:ooo...2ooo.........>oooo,........... ",
" ...........<oooo........,ooo$...XoooO........1ooo2............ ",
" ...........*oooo+.......=ooo*...%ooo%.......OooooX............ ",
" ...........=oooo&.......*ooo=...Oooo>.......@oooo%............ ",
" ...........#oooo$.......-ooo#....;oo1.......XooooO............ ",
" ............<oooo......#ooo2.....$ooo,......:ooo;............. ",
" ............*ooooO.....=oooX.....&ooo@.....,oooo>............. ",
" ............@oooo%.....&ooo@.....+oooX.....=oooo%............. ",
" ............,oooo>.....$ooo,......ooo:.....*ooooO............. ",
" .............2ooo1.....ooo;.......<ooo,....-oooo.............. ",
" .............Xoooo,...+ooo>.......*ooo=...#oooo$.............. ",
" .............@oooo@...&ooo%.......=ooo*...+oooo&.............. ",
" .............OooooX...>oooO.......,ooo-...&oooo+.............. ",
" ..............;ooo:...1ooo.........2ooo#..$oooo............... ",
" ..............>oooo,.Oooo$.........Xooo+..oooo$............... ",
" ..............%oooo=.%ooo&.........%ooo&.+oooo*............... ",
" ..............Ooooo*.Xooo+.........Oooo$.&oooo=............... ",
" ...............oooo-.:ooo#..........;ooo.>oooo#............... ",
" ...............$ooooOooo<...........$ooo+1ooo<................ ",
" ...............&ooooXooo*...........&ooo>oooo*................ ",
" ...............+oooooooo=...........+ooo1oooo=................ ",
" ................oooooooo,............oooooooo,................ ",
" ................$oooooo2.............$oooooo2................. ",
" ................*ooooooX.............*ooooooX................. ",
" ................=oooooo%.............=oooooo@................. ",
" ................#ooooooO.............#oooooo,................. ",
" .............................................................. ",
" .............................................................. ",
" .............................................................. ",
" .............................................................. ",
" .............................................................. ",
" .............................................................. ",
" .............................................................. ",
" .............................................................. ",
" .............................................................. ",
" .............................................................. ",
" .............................................................. ",
" .............................................................. ",
" .............................................................. ",
"                                                                "
};
